<svg version="1.1" xmlns="http://www.w3.org/2000/svg" xmlns:xlink="http://www.w3.org/1999/xlink" width="512" height="512" viewBox="0 0 512 512">
<g>
<path d="M437,61c-48,-47 -113,-61 -179,-61c-67,0 -131,14 -181,61c-48,47 -77,109 -77,179c0,70 29,132 77,179c48,47 113,61 181,61c67,0 131,-14 179,-61c48,-47 77,-109 77,-179c0,-70 -29,-132 -77,-179zM256,439c-100,0 -183,-83 -183,-183c0,-100 83,-183 183,-183c100,0 183,83 183,183c0,100 -83,183 -183,183z" fill="#000000"/>
<path d="M307,123c-31,0 -56,25 -56,56c0,31 25,56 56,56c31,0 56,-25 56,-56c0,-31 -25,-56 -56,-56z" fill="#000000"/>
<path d="M205,123c-31,0 -56,25 -56,56c0,31 25,56 56,56c31,0 56,-25 56,-56c0,-31 -25,-56 -56,-56z" fill="#000000"/>
<path d="M256,256c-71,0 -128,57 -128,128c0,18 15,32 32,32c18,0 32,-14 32,-32c0,-35 29,-64 64,-64c35,0 64,29 64,64c0,18 15,32 32,32c18,0 32,-14 32,-32c0,-71 -57,-128 -128,-128z" fill="#000000"/>
</g>
</svg>
